<?xml version="1.0" encoding="utf-8"?>
<!-- Generator: Adobe Illustrator 18.1.1, SVG Export Plug-In . SVG Version: 6.00 Build 0)  -->
<svg version="1.1" id="Layer_1" xmlns="http://www.w3.org/2000/svg" xmlns:xlink="http://www.w3.org/1999/xlink" x="0px" y="0px"
	 viewBox="0 0 100 100" enable-background="new 0 0 100 100" xml:space="preserve">
<g>
	<path fill="#333399" d="M50,0C22.4,0,0,22.4,0,50c0,27.6,22.4,50,50,50c27.6,0,50-22.4,50-50C100,22.4,77.6,0,50,0z M50,92.3
		c-23.4,0-42.3-19-42.3-42.3c0-23.4,19-42.3,42.3-42.3c23.4,0,42.3,19,42.3,42.3C92.3,73.4,73.4,92.3,50,92.3z"/>
	<path fill="#333399" d="M53.6,25.4c-0.1,0-21.6,0-21.6,0h-1.8v5.3l6,0.5c0.9,0.1,1.1,0.3,1.1,1.3v0.1v30.2c0,2.8-0.8,3.9-3.3,3.9
		c-1.1,0-2.3-0.3-2.7-0.4c-0.5-0.1-0.7-0.3-0.7-0.9l-0.7-4.8l-7.5-0.5V72c1.9,1.2,7.2,2.6,12.6,2.6c8.9,0,12.6-3.8,12.6-11.7V32.1
		c0,0,3.2,0.2,4.2,0.3c10.5,0.8,15.3,4.7,15.3,17c0,9.3-3.3,15.9-12.9,17l-1.8,0.1l-0.5,7.2h0.7c17.3,0,25.1-10.1,25.1-24.9
		C77.6,34.4,70.4,25.4,53.6,25.4z"/>
</g>
</svg>
