<?xml version="1.0" encoding="utf-8"?>
<!-- Generator: Adobe Illustrator 15.0.2, SVG Export Plug-In . SVG Version: 6.00 Build 0)  -->
<!DOCTYPE svg PUBLIC "-//W3C//DTD SVG 1.1//EN" "http://www.w3.org/Graphics/SVG/1.1/DTD/svg11.dtd">
<svg version="1.1" id="Layer_1" xmlns="http://www.w3.org/2000/svg" xmlns:xlink="http://www.w3.org/1999/xlink" x="0px" y="0px"
	 width="612px" height="612px" viewBox="90 0 612 612" enable-background="new 90 0 612 612" xml:space="preserve">
<g>
	<path fill="#222222" d="M396,0C227.088,0,90,137.088,90,306s137.088,306,306,306s306-137.088,306-306S564.912,0,396,0z
		 M396,564.876c-143.208,0-258.876-116.28-258.876-258.876c0-143.208,116.28-258.876,258.876-258.876
		c143.208,0,258.876,116.28,258.876,258.876C654.876,449.208,539.208,564.876,396,564.876z"/>
	<path fill="#222222" d="M418.032,155.448c-0.612,0-132.192,0-132.192,0h-11.016v32.436l36.72,3.06
		c5.508,0.612,6.732,1.836,6.732,7.956v0.612v184.824c0,17.136-4.896,23.868-20.196,23.868c-6.732,0-14.076-1.836-16.524-2.448
		c-3.06-0.612-4.284-1.836-4.284-5.508l-4.284-29.376l-45.9-3.061v72.828c11.628,7.345,44.064,15.912,77.112,15.912
		c54.468,0,77.112-23.256,77.112-71.604V196.452c0,0,19.583,1.224,25.704,1.836c64.261,4.896,93.637,28.764,93.637,104.04
		c0,56.916-20.196,97.308-78.948,104.04l-11.017,0.611l-3.06,44.064h4.284c105.876,0,153.611-61.812,153.611-152.388
		C564.912,210.528,520.848,155.448,418.032,155.448z"/>
</g>
</svg>
